<svg xmlns="http://www.w3.org/2000/svg" xmlns:xlink="http://www.w3.org/1999/xlink" xmlns:lucid="lucid" width="1754.75" height="1265.42"><g transform="translate(1141 1255.3380794270834)" lucid:page-tab-id="0_0"><path d="M-1500-1500h2500V500h-2500z" fill="#fff"/><path d="M-1140-1201.08a6 6 0 0 1 6-6H606.75a6 6 0 0 1 6 6V3.08a6 6 0 0 1-6 6H-1134a6 6 0 0 1-6-6z" stroke="#3a414a" stroke-width="2" fill="#fff"/><path d="M-1140-1249.34a6 6 0 0 1 6-6h386.3a6 6 0 0 1 6 6v24.26a6 6 0 0 1-6 6H-1134a6 6 0 0 1-6-6z" fill="#3a414a"/><use xlink:href="#a" transform="matrix(1,0,0,1,-1132,-1247.3380794270834) translate(0 16.589501953125)"/><use xlink:href="#b" transform="matrix(1,0,0,1,-1132,-1247.3380794270834) translate(42.06251953125001 16.589501953125)"/><use xlink:href="#c" transform="matrix(1,0,0,1,-1132,-1247.3380794270834) translate(131.12455078125 16.589501953125)"/><use xlink:href="#d" transform="matrix(1,0,0,1,-1132,-1247.3380794270834) translate(210.95015625000002 16.589501953125)"/><use xlink:href="#e" transform="matrix(1,0,0,1,-1132,-1247.3380794270834) translate(277.60772460937505 16.589501953125)"/><use xlink:href="#f" transform="matrix(1,0,0,1,-1132,-1247.3380794270834) translate(297.1922167968751 16.589501953125)"/><use xlink:href="#g" transform="matrix(1,0,0,1,-1132,-1247.3380794270834) translate(339.6389062500001 16.589501953125)"/><path d="M-1060-1076a6 6 0 0 1 6-6h150a6 6 0 0 1 6 6v110a6 6 0 0 1-6 6h-150a6 6 0 0 1-6-6z" stroke="#ff80df" stroke-width="2" fill="#fff0fb"/><use xlink:href="#h" transform="matrix(1,0,0,1,-1048,-1069.9999999999998) translate(43.951171875 58.27777777777778)"/><path d="M-498.8-1122.8a5.85 5.85 0 0 1 8.36 0l95 97.5a6.16 6.16 0 0 1 0 8.6l-95 97.5a5.85 5.85 0 0 1-8.37 0l-95-97.5a6.16 6.16 0 0 1 0-8.6z" stroke="#6db1ff" stroke-width="2" fill="#edf5ff"/><use xlink:href="#i" transform="matrix(1,0,0,1,-593,-1122.0833333333333) translate(70.57444444444445 59.59027777777778)"/><use xlink:href="#j" transform="matrix(1,0,0,1,-593,-1122.0833333333333) translate(42.62305555555555 91.85590277777777)"/><use xlink:href="#k" transform="matrix(1,0,0,1,-593,-1122.0833333333333) translate(139.07487847222222 91.85590277777777)"/><use xlink:href="#l" transform="matrix(1,0,0,1,-593,-1122.0833333333333) translate(32.37544270833334 124.12152777777777)"/><use xlink:href="#m" transform="matrix(1,0,0,1,-593,-1122.0833333333333) translate(126.48351562500001 124.12152777777777)"/><use xlink:href="#n" transform="matrix(1,0,0,1,-593,-1122.0833333333333) translate(63.152569444444445 156.38715277777777)"/><path d="M-91.25-1076a6 6 0 0 1 6-6h150a6 6 0 0 1 6 6v110a6 6 0 0 1-6 6h-150a6 6 0 0 1-6-6z" stroke="#ff80df" stroke-width="2" fill="#fff0fb"/><use xlink:href="#i" transform="matrix(1,0,0,1,-79.2479805827179,-1069.9999999999998) translate(41.56944444444445 24.59027777777778)"/><use xlink:href="#o" transform="matrix(1,0,0,1,-79.2479805827179,-1069.9999999999998) translate(29.281032986111114 56.85590277777778)"/><use xlink:href="#p" transform="matrix(1,0,0,1,-79.2479805827179,-1069.9999999999998) translate(36.165798611111114 89.12152777777777)"/><path d="M370.75-186.92a6 6 0 0 1 6-6h150a6 6 0 0 1 6 6v110a6 6 0 0 1-6 6h-150a6 6 0 0 1-6-6z" stroke="#ff80df" stroke-width="2" fill="#fff0fb"/><use xlink:href="#q" transform="matrix(1,0,0,1,382.7520194172821,-180.91666666666652) translate(7.644748263888893 58.27777777777778)"/><use xlink:href="#r" transform="matrix(1,0,0,1,382.7520194172821,-180.91666666666652) translate(54.06401909722222 58.27777777777778)"/><path d="M370.75-1075.5a6 6 0 0 1 6-6h150a6 6 0 0 1 6 6v109a6 6 0 0 1-6 6h-150a6 6 0 0 1-6-6z" stroke="#ff80df" stroke-width="2" fill="#fff0fb"/><use xlink:href="#q" transform="matrix(1,0,0,1,382.7520194172821,-1069.4999999999998) translate(13.509548611111114 57.90277777777778)"/><use xlink:href="#s" transform="matrix(1,0,0,1,382.7520194172821,-1069.4999999999998) translate(59.92881944444444 57.90277777777778)"/><path d="M-91.25-186.92a6 6 0 0 1 6-6h150a6 6 0 0 1 6 6v110a6 6 0 0 1-6 6h-150a6 6 0 0 1-6-6z" stroke="#ff80df" stroke-width="2" fill="#fff0fb"/><use xlink:href="#i" transform="matrix(1,0,0,1,-79.2479805827179,-180.91666666666652) translate(41.56944444444445 24.59027777777778)"/><use xlink:href="#t" transform="matrix(1,0,0,1,-79.2479805827179,-180.91666666666652) translate(11.8927951388889 56.85590277777778)"/><use xlink:href="#u" transform="matrix(1,0,0,1,-79.2479805827179,-180.91666666666652) translate(28.168836805555564 89.12152777777777)"/><path d="M370.75-608.92a6 6 0 0 1 6-6h150a6 6 0 0 1 6 6v110a6 6 0 0 1-6 6h-150a6 6 0 0 1-6-6z" stroke="#ff80df" stroke-width="2" fill="#fff0fb"/><use xlink:href="#v" transform="matrix(1,0,0,1,382.7520194172821,-602.9166666666665) translate(17.69249131944445 58.27777777777778)"/><use xlink:href="#w" transform="matrix(1,0,0,1,382.7520194172821,-602.9166666666665) translate(74.04014756944444 58.27777777777778)"/><path d="M-575.62-185.92a6 6 0 0 1 6-6h150a6 6 0 0 1 6 6v108a6 6 0 0 1-6 6h-150a6 6 0 0 1-6-6z" stroke="#ff80df" stroke-width="2" fill="#fff0fb"/><use xlink:href="#x" transform="matrix(1,0,0,1,-563.623990291359,-179.91666666666652) translate(0.5592447916666856 39.52777777777778)"/><use xlink:href="#y" transform="matrix(1,0,0,1,-563.623990291359,-179.91666666666652) translate(61.670355902777786 39.52777777777778)"/><use xlink:href="#z" transform="matrix(1,0,0,1,-563.623990291359,-179.91666666666652) translate(36.458767361111114 71.79340277777777)"/><path d="M-896.5-1021h283.55" stroke="#3a414a" fill="none"/><path d="M-896.5-1020.52h-.5v-.96h.5z" stroke="#3a414a" stroke-width=".05" fill="#3a414a"/><path d="M-598.18-1021l-14.27 4.63v-9.26z" stroke="#3a414a" fill="#3a414a"/><path d="M-323.1-1020.52h-69.08v-.96h69.1zm214.47 0h-106.24v-.96h106.24z" stroke="#3a414a" stroke-width=".05" fill="#3a414a"/><path d="M-392.17-1020.52h-.55l.04-.48-.04-.48h.55z" fill="#3a414a"/><path stroke="#3a414a" stroke-width=".05" fill="#3a414a"/><path d="M-93.87-1021l-14.26 4.63v-9.26z" fill="#3a414a"/><path d="M-92.33-1021l-16.28 5.3v-10.6zm-15.33 3.98l12.26-3.98-12.26-3.98z" stroke="#3a414a" stroke-width=".05" fill="#3a414a"/><use xlink:href="#A" transform="matrix(1,0,0,1,-323.08571147004216,-1031.7552083333333) translate(0 17.22222222222222)"/><use xlink:href="#B" transform="matrix(1,0,0,1,-323.08571147004216,-1031.7552083333333) translate(79.95659722222224 17.22222222222222)"/><use xlink:href="#C" transform="matrix(1,0,0,1,-323.08571147004216,-1031.7552083333333) translate(96.23263888888891 17.22222222222222)"/><path d="M72.25-1021h281.12" stroke="#3a414a" fill="none"/><path d="M72.27-1020.52h-.52v-.96h.52z" stroke="#3a414a" stroke-width=".05" fill="#3a414a"/><path d="M368.13-1021l-14.26 4.63v-9.26z" stroke="#3a414a" fill="#3a414a"/><path d="M72.25-131.92h281.12" stroke="#3a414a" fill="none"/><path d="M72.27-131.44h-.52v-.95h.52z" stroke="#3a414a" stroke-width=".05" fill="#3a414a"/><path d="M368.13-131.92l-14.26 4.64v-9.27z" stroke="#3a414a" fill="#3a414a"/><path d="M-412.12-131.92h303.5" stroke="#3a414a" fill="none"/><path d="M-412.1-131.44h-.52v-.95h.5z" stroke="#3a414a" stroke-width=".05" fill="#3a414a"/><path d="M-93.87-131.92l-14.26 4.64v-9.27z" stroke="#3a414a" fill="#3a414a"/><path d="M-494.15-209.3h-.95v-407.26h.95zm0-428.77h-.95v-277.87h.95z" stroke="#3a414a" stroke-width=".05" fill="#3a414a"/><path d="M-494.62-916.44l.47-.04v.55h-.95v-.55z" fill="#3a414a"/><path stroke="#3a414a" stroke-width=".05" fill="#3a414a"/><path d="M-494.62-194.53l-4.64-14.27h9.27z" fill="#3a414a"/><path d="M-494.62-193l-5.3-16.28h10.6zm-4-15.32l4 12.25 3.98-12.25z" stroke="#3a414a" stroke-width=".05" fill="#3a414a"/><use xlink:href="#A" transform="matrix(1,0,0,1,-546.6291986246923,-638.0732273337993) translate(0 17.22222222222222)"/><use xlink:href="#D" transform="matrix(1,0,0,1,-546.6291986246923,-638.0732273337993) translate(79.95659722222224 17.22222222222222)"/><path d="M451.75-959v326.7" stroke="#3a414a" fill="none"/><path d="M452.23-959h-.95v-.5h.95z" stroke="#3a414a" stroke-width=".05" fill="#3a414a"/><path d="M451.75-617.53l-4.63-14.27h9.27z" stroke="#3a414a" fill="#3a414a"/><path d="M451.75-194.42v-281.1" stroke="#3a414a" fill="none"/><path d="M452.23-193.92h-.95v-.5h.95z" stroke="#3a414a" stroke-width=".05" fill="#3a414a"/><path d="M451.75-490.3l4.64 14.27h-9.28z" stroke="#3a414a" fill="#3a414a"/><path d="M-1140-1201.08a6 6 0 0 1 6-6H606.75a6 6 0 0 1 6 6V3.08a6 6 0 0 1-6 6H-1134a6 6 0 0 1-6-6z" stroke="#3a414a" stroke-width="2" fill="#fff"/><path d="M-1140-1249.34a6 6 0 0 1 6-6h386.3a6 6 0 0 1 6 6v24.26a6 6 0 0 1-6 6H-1134a6 6 0 0 1-6-6z" fill="#3a414a"/><use xlink:href="#a" transform="matrix(1,0,0,1,-1132,-1247.3380794270834) translate(0 16.589501953125)"/><use xlink:href="#b" transform="matrix(1,0,0,1,-1132,-1247.3380794270834) translate(42.06251953125001 16.589501953125)"/><use xlink:href="#c" transform="matrix(1,0,0,1,-1132,-1247.3380794270834) translate(131.12455078125 16.589501953125)"/><use xlink:href="#d" transform="matrix(1,0,0,1,-1132,-1247.3380794270834) translate(210.95015625000002 16.589501953125)"/><use xlink:href="#e" transform="matrix(1,0,0,1,-1132,-1247.3380794270834) translate(277.60772460937505 16.589501953125)"/><use xlink:href="#f" transform="matrix(1,0,0,1,-1132,-1247.3380794270834) translate(297.1922167968751 16.589501953125)"/><use xlink:href="#g" transform="matrix(1,0,0,1,-1132,-1247.3380794270834) translate(339.6389062500001 16.589501953125)"/><path d="M-1060-1076a6 6 0 0 1 6-6h150a6 6 0 0 1 6 6v110a6 6 0 0 1-6 6h-150a6 6 0 0 1-6-6z" stroke="#ff80df" stroke-width="2" fill="#fff0fb"/><use xlink:href="#h" transform="matrix(1,0,0,1,-1048,-1069.9999999999998) translate(43.951171875 58.27777777777778)"/><path d="M-498.8-1122.8a5.85 5.85 0 0 1 8.36 0l95 97.5a6.16 6.16 0 0 1 0 8.6l-95 97.5a5.85 5.85 0 0 1-8.37 0l-95-97.5a6.16 6.16 0 0 1 0-8.6z" stroke="#6db1ff" stroke-width="2" fill="#edf5ff"/><use xlink:href="#i" transform="matrix(1,0,0,1,-593,-1122.0833333333333) translate(70.57444444444445 59.59027777777778)"/><use xlink:href="#j" transform="matrix(1,0,0,1,-593,-1122.0833333333333) translate(42.62305555555555 91.85590277777777)"/><use xlink:href="#k" transform="matrix(1,0,0,1,-593,-1122.0833333333333) translate(139.07487847222222 91.85590277777777)"/><use xlink:href="#l" transform="matrix(1,0,0,1,-593,-1122.0833333333333) translate(32.37544270833334 124.12152777777777)"/><use xlink:href="#m" transform="matrix(1,0,0,1,-593,-1122.0833333333333) translate(126.48351562500001 124.12152777777777)"/><use xlink:href="#n" transform="matrix(1,0,0,1,-593,-1122.0833333333333) translate(63.152569444444445 156.38715277777777)"/><path d="M-91.25-1076a6 6 0 0 1 6-6h150a6 6 0 0 1 6 6v110a6 6 0 0 1-6 6h-150a6 6 0 0 1-6-6z" stroke="#ff80df" stroke-width="2" fill="#fff0fb"/><use xlink:href="#i" transform="matrix(1,0,0,1,-79.2479805827179,-1069.9999999999998) translate(41.56944444444445 24.59027777777778)"/><use xlink:href="#o" transform="matrix(1,0,0,1,-79.2479805827179,-1069.9999999999998) translate(29.281032986111114 56.85590277777778)"/><use xlink:href="#p" transform="matrix(1,0,0,1,-79.2479805827179,-1069.9999999999998) translate(36.165798611111114 89.12152777777777)"/><path d="M370.75-186.92a6 6 0 0 1 6-6h150a6 6 0 0 1 6 6v110a6 6 0 0 1-6 6h-150a6 6 0 0 1-6-6z" stroke="#ff80df" stroke-width="2" fill="#fff0fb"/><use xlink:href="#q" transform="matrix(1,0,0,1,382.7520194172821,-180.91666666666652) translate(7.644748263888893 58.27777777777778)"/><use xlink:href="#r" transform="matrix(1,0,0,1,382.7520194172821,-180.91666666666652) translate(54.06401909722222 58.27777777777778)"/><path d="M370.75-1075.5a6 6 0 0 1 6-6h150a6 6 0 0 1 6 6v109a6 6 0 0 1-6 6h-150a6 6 0 0 1-6-6z" stroke="#ff80df" stroke-width="2" fill="#fff0fb"/><use xlink:href="#q" transform="matrix(1,0,0,1,382.7520194172821,-1069.4999999999998) translate(13.509548611111114 57.90277777777778)"/><use xlink:href="#s" transform="matrix(1,0,0,1,382.7520194172821,-1069.4999999999998) translate(59.92881944444444 57.90277777777778)"/><path d="M-91.25-186.92a6 6 0 0 1 6-6h150a6 6 0 0 1 6 6v110a6 6 0 0 1-6 6h-150a6 6 0 0 1-6-6z" stroke="#ff80df" stroke-width="2" fill="#fff0fb"/><g><use xlink:href="#i" transform="matrix(1,0,0,1,-79.2479805827179,-180.91666666666652) translate(41.56944444444445 24.59027777777778)"/><use xlink:href="#t" transform="matrix(1,0,0,1,-79.2479805827179,-180.91666666666652) translate(11.8927951388889 56.85590277777778)"/><use xlink:href="#u" transform="matrix(1,0,0,1,-79.2479805827179,-180.91666666666652) translate(28.168836805555564 89.12152777777777)"/></g><path d="M370.75-608.92a6 6 0 0 1 6-6h150a6 6 0 0 1 6 6v110a6 6 0 0 1-6 6h-150a6 6 0 0 1-6-6z" stroke="#ff80df" stroke-width="2" fill="#fff0fb"/><g><use xlink:href="#v" transform="matrix(1,0,0,1,382.7520194172821,-602.9166666666665) translate(17.69249131944445 58.27777777777778)"/><use xlink:href="#w" transform="matrix(1,0,0,1,382.7520194172821,-602.9166666666665) translate(74.04014756944444 58.27777777777778)"/></g><path d="M-575.62-185.92a6 6 0 0 1 6-6h150a6 6 0 0 1 6 6v108a6 6 0 0 1-6 6h-150a6 6 0 0 1-6-6z" stroke="#ff80df" stroke-width="2" fill="#fff0fb"/><g><use xlink:href="#x" transform="matrix(1,0,0,1,-563.623990291359,-179.91666666666652) translate(0.5592447916666856 39.52777777777778)"/><use xlink:href="#y" transform="matrix(1,0,0,1,-563.623990291359,-179.91666666666652) translate(61.670355902777786 39.52777777777778)"/><use xlink:href="#z" transform="matrix(1,0,0,1,-563.623990291359,-179.91666666666652) translate(36.458767361111114 71.79340277777777)"/></g><path d="M-896.5-1021h283.55" stroke="#3a414a" fill="none"/><path d="M-896.5-1020.52h-.5v-.96h.5z" stroke="#3a414a" stroke-width=".05" fill="#3a414a"/><path d="M-598.18-1021l-14.27 4.63v-9.26z" stroke="#3a414a" fill="#3a414a"/><path d="M-323.1-1020.52h-69.08v-.96h69.1zm214.47 0h-106.24v-.96h106.24z" stroke="#3a414a" stroke-width=".05" fill="#3a414a"/><path d="M-392.17-1020.52h-.55l.04-.48-.04-.48h.55z" fill="#3a414a"/><path stroke="#3a414a" stroke-width=".05" fill="#3a414a"/><path d="M-93.87-1021l-14.26 4.63v-9.26z" fill="#3a414a"/><path d="M-92.33-1021l-16.28 5.3v-10.6zm-15.33 3.98l12.26-3.98-12.26-3.98z" stroke="#3a414a" stroke-width=".05" fill="#3a414a"/><g><use xlink:href="#A" transform="matrix(1,0,0,1,-323.08571147004216,-1031.7552083333333) translate(0 17.22222222222222)"/><use xlink:href="#B" transform="matrix(1,0,0,1,-323.08571147004216,-1031.7552083333333) translate(79.95659722222224 17.22222222222222)"/><use xlink:href="#C" transform="matrix(1,0,0,1,-323.08571147004216,-1031.7552083333333) translate(96.23263888888891 17.22222222222222)"/></g><path d="M72.25-1021h281.12" stroke="#3a414a" fill="none"/><path d="M72.27-1020.52h-.52v-.96h.52z" stroke="#3a414a" stroke-width=".05" fill="#3a414a"/><path d="M368.13-1021l-14.26 4.63v-9.26z" stroke="#3a414a" fill="#3a414a"/><path d="M72.25-131.92h281.12" stroke="#3a414a" fill="none"/><path d="M72.27-131.44h-.52v-.95h.52z" stroke="#3a414a" stroke-width=".05" fill="#3a414a"/><path d="M368.13-131.92l-14.26 4.64v-9.27z" stroke="#3a414a" fill="#3a414a"/><path d="M-412.12-131.92h303.5" stroke="#3a414a" fill="none"/><path d="M-412.1-131.44h-.52v-.95h.5z" stroke="#3a414a" stroke-width=".05" fill="#3a414a"/><path d="M-93.87-131.92l-14.26 4.64v-9.27z" stroke="#3a414a" fill="#3a414a"/><path d="M-494.15-209.3h-.95v-407.26h.95zm0-428.77h-.95v-277.87h.95z" stroke="#3a414a" stroke-width=".05" fill="#3a414a"/><path d="M-494.62-916.44l.47-.04v.55h-.95v-.55z" fill="#3a414a"/><path stroke="#3a414a" stroke-width=".05" fill="#3a414a"/><path d="M-494.62-194.53l-4.64-14.27h9.27z" fill="#3a414a"/><path d="M-494.62-193l-5.3-16.28h10.6zm-4-15.32l4 12.25 3.98-12.25z" stroke="#3a414a" stroke-width=".05" fill="#3a414a"/><g><use xlink:href="#A" transform="matrix(1,0,0,1,-546.6291986246923,-638.0732273337993) translate(0 17.22222222222222)"/><use xlink:href="#D" transform="matrix(1,0,0,1,-546.6291986246923,-638.0732273337993) translate(79.95659722222224 17.22222222222222)"/></g><path d="M451.75-959v326.7" stroke="#3a414a" fill="none"/><path d="M452.23-959h-.95v-.5h.95z" stroke="#3a414a" stroke-width=".05" fill="#3a414a"/><path d="M451.75-617.53l-4.63-14.27h9.27z" stroke="#3a414a" fill="#3a414a"/><path d="M451.75-194.42v-281.1" stroke="#3a414a" fill="none"/><path d="M452.23-193.92h-.95v-.5h.95z" stroke="#3a414a" stroke-width=".05" fill="#3a414a"/><path d="M451.75-490.3l4.64 14.27h-9.28z" stroke="#3a414a" fill="#3a414a"/><defs><path fill="#fff" d="M763 24c-353 0-583-224-583-531v-983h190v968c0 214 149 370 393 370 243 0 391-156 391-370v-968h190v983c0 307-230 531-581 531" id="E"/><path fill="#fff" d="M538 24C308 24 148-78 108-271l171-41c32 123 123 178 257 178 156 0 256-77 256-169 0-77-54-128-164-154l-186-44c-203-48-300-148-300-305 0-192 176-326 414-326 230 0 351 112 402 269l-163 42c-31-80-94-158-238-158-133 0-233 69-233 162 0 83 57 129 188 160l169 40c203 48 298 149 298 302 0 196-179 339-441 339" id="F"/><path fill="#fff" d="M628 24c-324 0-524-230-524-574 0-343 198-582 503-582 237 0 487 146 487 559v75H286c9 234 145 362 343 362 132 0 231-58 273-172l174 48C1024-91 857 24 628 24zM287-650h624c-17-190-120-322-304-322-192 0-309 151-320 322" id="G"/><path fill="#fff" d="M158 0v-1118h174v172h12c41-113 157-188 290-188 26 0 70 2 91 3v181c-11-2-60-10-108-10-161 0-279 109-279 260V0H158" id="H"/><g id="a"><use transform="matrix(0.008173828125000001,0,0,0.008173828125000001,0,0)" xlink:href="#E"/><use transform="matrix(0.008173828125000001,0,0,0.008173828125000001,12.456914062500001,0)" xlink:href="#F"/><use transform="matrix(0.008173828125000001,0,0,0.008173828125000001,21.292822265625002,0)" xlink:href="#G"/><use transform="matrix(0.008173828125000001,0,0,0.008173828125000001,31.052373046875005,0)" xlink:href="#H"/></g><path fill="#fff" d="M180 0v-1490h224l606 953c40 63 108 177 176 312-27-437-7-821-13-1265h190V0h-226C860-448 622-778 356-1262c27 476 11 792 15 1262H180" id="I"/><path fill="#fff" d="M471 26C259 26 90-98 90-318c0-256 228-303 435-329 202-27 287-16 287-108 0-139-79-219-234-219-161 0-248 86-283 164l-173-57c86-203 278-265 451-265 150 0 419 46 419 395V0H815v-152h-12C765-73 660 26 471 26zm31-159c199 0 310-134 310-271v-155c-30 35-226 55-295 64-131 17-246 59-246 186 0 116 97 176 231 176" id="J"/><path fill="#fff" d="M481 0L54-1118h197c107 314 236 620 325 951 87-331 217-637 324-951h197L670 0H481" id="K"/><path fill="#fff" d="M158 0v-1118h180V0H158zm91-1301c-68 0-125-53-125-119s57-119 125-119c69 0 126 53 126 119s-57 119-126 119" id="L"/><path fill="#fff" d="M611 442c-248 0-391-105-460-228l146-94c47 65 117 165 314 165 178 0 307-82 307-266v-224h-17C863-141 792-18 576-18c-268 0-472-195-472-546 0-346 197-568 476-568 216 0 288 133 326 193h17v-179h175V29c0 289-215 413-487 413zm-5-620c203 0 314-146 314-390 0-237-108-403-314-403-213 0-319 180-319 403 0 230 109 390 319 390" id="M"/><path fill="#fff" d="M598-1118v154H368v674c0 100 37 144 132 144 23 0 62-6 92-12L629-6c-37 13-88 20-134 20-193 0-307-107-307-290v-688H20v-154h168v-266h180v266h230" id="N"/><path fill="#fff" d="M613 24c-304 0-509-231-509-576 0-350 205-580 509-580 305 0 511 230 511 580 0 345-206 576-511 576zm0-161c226 0 329-195 329-415 0-222-103-419-329-419-223 0-326 196-326 419 0 220 103 415 326 415" id="O"/><path fill="#fff" d="M338-670V0H158v-1118h173l1 207c72-158 192-221 342-221 226 0 378 139 378 422V0H872v-695c0-172-96-275-252-275-161 0-282 109-282 300" id="P"/><g id="b"><use transform="matrix(0.008173828125000001,0,0,0.008173828125000001,0,0)" xlink:href="#I"/><use transform="matrix(0.008173828125000001,0,0,0.008173828125000001,12.612216796875002,0)" xlink:href="#J"/><use transform="matrix(0.008173828125000001,0,0,0.008173828125000001,21.766904296875005,0)" xlink:href="#K"/><use transform="matrix(0.008173828125000001,0,0,0.008173828125000001,31.174980468750007,0)" xlink:href="#L"/><use transform="matrix(0.008173828125000001,0,0,0.008173828125000001,35.22919921875001,0)" xlink:href="#M"/><use transform="matrix(0.008173828125000001,0,0,0.008173828125000001,45.49552734375001,0)" xlink:href="#J"/><use transform="matrix(0.008173828125000001,0,0,0.008173828125000001,54.89542968750001,0)" xlink:href="#N"/><use transform="matrix(0.008173828125000001,0,0,0.008173828125000001,60.371894531250014,0)" xlink:href="#L"/><use transform="matrix(0.008173828125000001,0,0,0.008173828125000001,64.42611328125001,0)" xlink:href="#O"/><use transform="matrix(0.008173828125000001,0,0,0.008173828125000001,74.46357421875001,0)" xlink:href="#P"/></g><path fill="#fff" d="M458 0L52-1490h194c108 439 233 855 324 1313 92-459 221-873 331-1313h216c110 438 234 854 330 1307 92-455 216-869 323-1307h196L1558 0h-221l-256-944c-26-95-50-200-73-331-22 122-44 223-73 331L680 0H458" id="Q"/><path fill="#fff" d="M158 0v-1490h180v865h22l478-493h223L593-638 1096 0H865L456-523 338-412V0H158" id="R"/><path fill="#fff" d="M678-1118v154H420V0H240v-964H20v-154h220v-149c0-194 155-293 318-293 85 0 141 18 168 30l-50 154c-19-6-47-17-97-17-111 0-159 58-159 166v109h258" id="S"/><path fill="#fff" d="M338-1490V0H158v-1490h180" id="T"/><path fill="#fff" d="M409 0L70-1118h191c89 329 165 560 243 925 75-353 154-601 240-925h192c85 325 161 564 235 922 77-354 157-598 244-922h191L1267 0h-179c-86-307-176-590-250-913C763-588 675-308 588 0H409" id="U"/><g id="c"><use transform="matrix(0.008173828125000001,0,0,0.008173828125000001,0,0)" xlink:href="#Q"/><use transform="matrix(0.008173828125000001,0,0,0.008173828125000001,15.644707031250004,0)" xlink:href="#O"/><use transform="matrix(0.008173828125000001,0,0,0.008173828125000001,25.682167968750004,0)" xlink:href="#H"/><use transform="matrix(0.008173828125000001,0,0,0.008173828125000001,32.24575195312501,0)" xlink:href="#R"/><use transform="matrix(0.008173828125000001,0,0,0.008173828125000001,41.43313476562501,0)" xlink:href="#S"/><use transform="matrix(0.008173828125000001,0,0,0.008173828125000001,47.62889648437501,0)" xlink:href="#T"/><use transform="matrix(0.008173828125000001,0,0,0.008173828125000001,51.68311523437501,0)" xlink:href="#O"/><use transform="matrix(0.008173828125000001,0,0,0.008173828125000001,61.41814453125001,0)" xlink:href="#U"/></g><path fill="#fff" d="M657 26c-323 0-524-166-541-416h195c15 169 171 246 346 246 202 0 356-106 356-265 5-203-294-238-475-293-239-73-380-191-380-389 0-252 224-419 512-419 294 0 499 171 508 396H992c-17-145-151-228-328-228-193 0-321 102-321 242 0 156 175 211 284 241l149 41c160 44 422 134 422 412 0 244-197 432-541 432" id="V"/><g id="d"><use transform="matrix(0.008173828125000001,0,0,0.008173828125000001,0,0)" xlink:href="#V"/><use transform="matrix(0.008173828125000001,0,0,0.008173828125000001,10.740410156250002,0)" xlink:href="#N"/><use transform="matrix(0.008173828125000001,0,0,0.008173828125000001,16.298613281250002,0)" xlink:href="#J"/><use transform="matrix(0.008173828125000001,0,0,0.008173828125000001,25.698515625000006,0)" xlink:href="#H"/><use transform="matrix(0.008173828125000001,0,0,0.008173828125000001,32.26209960937501,0)" xlink:href="#N"/><use transform="matrix(0.008173828125000001,0,0,0.008173828125000001,37.73856445312501,0)" xlink:href="#L"/><use transform="matrix(0.008173828125000001,0,0,0.008173828125000001,41.79278320312501,0)" xlink:href="#P"/><use transform="matrix(0.008173828125000001,0,0,0.008173828125000001,51.68311523437501,0)" xlink:href="#M"/></g><g id="e"><use transform="matrix(0.008173828125000001,0,0,0.008173828125000001,0,0)" xlink:href="#J"/><use transform="matrix(0.008173828125000001,0,0,0.008173828125000001,9.399902343750002,0)" xlink:href="#N"/></g><g id="f"><use transform="matrix(0.008173828125000001,0,0,0.008173828125000001,0,0)" xlink:href="#V"/><use transform="matrix(0.008173828125000001,0,0,0.008173828125000001,10.740410156250002,0)" xlink:href="#N"/><use transform="matrix(0.008173828125000001,0,0,0.008173828125000001,16.298613281250002,0)" xlink:href="#J"/><use transform="matrix(0.008173828125000001,0,0,0.008173828125000001,25.698515625000006,0)" xlink:href="#H"/><use transform="matrix(0.008173828125000001,0,0,0.008173828125000001,32.26209960937501,0)" xlink:href="#N"/></g><path fill="#fff" d="M577 24c-279 0-473-224-473-580 0-354 195-576 474-576 218 0 287 134 324 193h14v-551h180V0H922v-173h-20C865-111 790 24 577 24zm27-161c203 0 314-172 314-421 0-247-108-413-314-413-212 0-317 181-317 413 0 235 108 421 317 421" id="W"/><g id="g"><use transform="matrix(0.008173828125000001,0,0,0.008173828125000001,0,0)" xlink:href="#I"/><use transform="matrix(0.008173828125000001,0,0,0.008173828125000001,12.612216796875002,0)" xlink:href="#O"/><use transform="matrix(0.008173828125000001,0,0,0.008173828125000001,22.649677734375004,0)" xlink:href="#W"/><use transform="matrix(0.008173828125000001,0,0,0.008173828125000001,32.89965820312501,0)" xlink:href="#G"/></g><path d="M657 26c-323 0-524-166-541-416h195c15 169 171 246 346 246 202 0 356-106 356-265 5-203-294-238-475-293-239-73-380-191-380-389 0-252 224-419 512-419 294 0 499 171 508 396H992c-17-145-151-228-328-228-193 0-321 102-321 242 0 156 175 211 284 241l149 41c160 44 422 134 422 412 0 244-197 432-541 432" id="X"/><path d="M598-1118v154H368v674c0 100 37 144 132 144 23 0 62-6 92-12L629-6c-37 13-88 20-134 20-193 0-307-107-307-290v-688H20v-154h168v-266h180v266h230" id="Y"/><path d="M471 26C259 26 90-98 90-318c0-256 228-303 435-329 202-27 287-16 287-108 0-139-79-219-234-219-161 0-248 86-283 164l-173-57c86-203 278-265 451-265 150 0 419 46 419 395V0H815v-152h-12C765-73 660 26 471 26zm31-159c199 0 310-134 310-271v-155c-30 35-226 55-295 64-131 17-246 59-246 186 0 116 97 176 231 176" id="Z"/><path d="M158 0v-1118h174v172h12c41-113 157-188 290-188 26 0 70 2 91 3v181c-11-2-60-10-108-10-161 0-279 109-279 260V0H158" id="aa"/><g id="h"><use transform="matrix(0.010850694444444444,0,0,0.010850694444444444,0,0)" xlink:href="#X"/><use transform="matrix(0.010850694444444444,0,0,0.010850694444444444,14.2578125,0)" xlink:href="#Y"/><use transform="matrix(0.010850694444444444,0,0,0.010850694444444444,21.63628472222222,0)" xlink:href="#Z"/><use transform="matrix(0.010850694444444444,0,0,0.010850694444444444,34.11458333333333,0)" xlink:href="#aa"/><use transform="matrix(0.010850694444444444,0,0,0.010850694444444444,42.827690972222214,0)" xlink:href="#Y"/></g><path d="M180 0v-1490h908v168H370v486h669v168H370v500h727V0H180" id="ab"/><path d="M338-670V0H158v-1118h173l1 207c72-158 192-221 342-221 226 0 378 139 378 422V0H872v-695c0-172-96-275-252-275-161 0-282 109-282 300" id="ac"/><path d="M628 24c-324 0-524-230-524-574 0-343 198-582 503-582 237 0 487 146 487 559v75H286c9 234 145 362 343 362 132 0 231-58 273-172l174 48C1024-91 857 24 628 24zM287-650h624c-17-190-120-322-304-322-192 0-309 151-320 322" id="ad"/><g id="i"><use transform="matrix(0.010850694444444444,0,0,0.010850694444444444,0,0)" xlink:href="#ab"/><use transform="matrix(0.010850694444444444,0,0,0.010850694444444444,13.35720486111111,0)" xlink:href="#ac"/><use transform="matrix(0.010850694444444444,0,0,0.010850694444444444,26.48654513888889,0)" xlink:href="#Y"/><use transform="matrix(0.010850694444444444,0,0,0.010850694444444444,33.53949652777777,0)" xlink:href="#ad"/><use transform="matrix(0.010850694444444444,0,0,0.010850694444444444,46.495225694444436,0)" xlink:href="#aa"/></g><path d="M600 0L52-1490h200c166 485 304 806 458 1336 156-533 285-846 449-1336h202L819 0H600" id="ae"/><path d="M613 24c-304 0-509-231-509-576 0-350 205-580 509-580 305 0 511 230 511 580 0 345-206 576-511 576zm0-161c226 0 329-195 329-415 0-222-103-419-329-419-223 0-326 196-326 419 0 220 103 415 326 415" id="af"/><path d="M338-1490V0H158v-1490h180" id="ag"/><path d="M537 14c-226 0-379-139-379-422v-710h180v695c0 172 97 275 253 275 160 0 281-109 281-300v-670h181V0H879v-209C806-46 684 14 537 14" id="ah"/><path d="M158 0v-1118h175l1 205c55-151 181-225 313-225 147 0 245 90 285 228 53-141 190-228 352-228 194 0 352 125 352 384V0h-181v-749c0-161-105-225-225-225-151 0-243 103-243 244V0H807v-767c0-124-93-207-219-207-131 0-250 92-250 270V0H158" id="ai"/><path d="M538 24C308 24 148-78 108-271l171-41c32 123 123 178 257 178 156 0 256-77 256-169 0-77-54-128-164-154l-186-44c-203-48-300-148-300-305 0-192 176-326 414-326 230 0 351 112 402 269l-163 42c-31-80-94-158-238-158-133 0-233 69-233 162 0 83 57 129 188 160l169 40c203 48 298 149 298 302 0 196-179 339-441 339" id="aj"/><g id="j"><use transform="matrix(0.010850694444444444,0,0,0.010850694444444444,0,0)" xlink:href="#ae"/><use transform="matrix(0.010850694444444444,0,0,0.010850694444444444,14.20355902777778,0)" xlink:href="#af"/><use transform="matrix(0.010850694444444444,0,0,0.010850694444444444,27.52821180555556,0)" xlink:href="#ag"/><use transform="matrix(0.010850694444444444,0,0,0.010850694444444444,32.91015625,0)" xlink:href="#ah"/><use transform="matrix(0.010850694444444444,0,0,0.010850694444444444,46.05034722222222,0)" xlink:href="#ai"/><use transform="matrix(0.010850694444444444,0,0,0.010850694444444444,65.51649305555556,0)" xlink:href="#ad"/><use transform="matrix(0.010850694444444444,0,0,0.010850694444444444,78.47222222222223,0)" xlink:href="#aj"/></g><path d="M580 20c-295 0-476-179-476-409 0-189 123-290 294-416-104-125-173-226-173-362 0-197 144-337 365-337 224 0 362 144 362 321 0 185-174 312-306 405l319 387c38-75 61-165 61-267h173c0 208-62 332-120 406L1287 0h-217L967-124C868-27 716 20 580 20zm279-273L507-675l-51 38c-123 91-167 162-167 254 0 147 113 246 278 246 107 0 210-41 292-116zM538-908l97-72c54-40 136-101 136-206 0-95-68-163-176-163-113 0-189 74-189 181 0 90 53 164 132 260" id="ak"/><use transform="matrix(0.010850694444444444,0,0,0.010850694444444444,0,0)" xlink:href="#ak" id="k"/><path d="M180 0v-1490h510c348 0 508 209 508 474 0 266-160 477-507 477H370V0H180zm190-706h312c236 0 327-133 327-310 0-176-91-307-329-307H370v617" id="al"/><path d="M678-1118v154H420V0H240v-964H20v-154h220v-149c0-194 155-293 318-293 85 0 141 18 168 30l-50 154c-19-6-47-17-97-17-111 0-159 58-159 166v109h258" id="am"/><g id="l"><use transform="matrix(0.010850694444444444,0,0,0.010850694444444444,0,0)" xlink:href="#al"/><use transform="matrix(0.010850694444444444,0,0,0.010850694444444444,14.192708333333332,0)" xlink:href="#ag"/><use transform="matrix(0.010850694444444444,0,0,0.010850694444444444,19.57465277777778,0)" xlink:href="#Z"/><use transform="matrix(0.010850694444444444,0,0,0.010850694444444444,32.052951388888886,0)" xlink:href="#Y"/><use transform="matrix(0.010850694444444444,0,0,0.010850694444444444,38.78038194444444,0)" xlink:href="#am"/><use transform="matrix(0.010850694444444444,0,0,0.010850694444444444,46.35416666666667,0)" xlink:href="#af"/><use transform="matrix(0.010850694444444444,0,0,0.010850694444444444,59.67881944444445,0)" xlink:href="#aa"/><use transform="matrix(0.010850694444444444,0,0,0.010850694444444444,68.39192708333334,0)" xlink:href="#ai"/></g><path d="M180 0v-1490h901v168H370v510h643v168H370V0H180" id="an"/><g id="m"><use transform="matrix(0.010850694444444444,0,0,0.010850694444444444,0,0)" xlink:href="#an"/><use transform="matrix(0.010850694444444444,0,0,0.010850694444444444,12.239583333333332,0)" xlink:href="#ad"/><use transform="matrix(0.010850694444444444,0,0,0.010850694444444444,25.1953125,0)" xlink:href="#ad"/></g><path d="M784 20c-382 0-662-292-662-764 0-473 280-766 662-766s660 293 660 766c0 472-278 764-660 764zm0-176c266 0 475-207 475-588 0-383-209-590-475-590-268 0-477 208-477 590 0 380 209 588 477 588" id="ao"/><path d="M158 418v-1536h174v179h20c37-59 106-193 324-193 279 0 474 222 474 576 0 356-194 580-473 580-213 0-288-135-325-197h-14v591H158zm492-555c209 0 317-186 317-421 0-232-105-413-317-413-206 0-314 166-314 413 0 249 111 421 314 421" id="ap"/><path d="M158 0v-1118h180V0H158zm91-1301c-68 0-125-53-125-119s57-119 125-119c69 0 126 53 126 119s-57 119-126 119" id="aq"/><g id="n"><use transform="matrix(0.010850694444444444,0,0,0.010850694444444444,0,0)" xlink:href="#ao"/><use transform="matrix(0.010850694444444444,0,0,0.010850694444444444,16.9921875,0)" xlink:href="#ap"/><use transform="matrix(0.010850694444444444,0,0,0.010850694444444444,30.598958333333332,0)" xlink:href="#Y"/><use transform="matrix(0.010850694444444444,0,0,0.010850694444444444,37.86892361111111,0)" xlink:href="#aq"/><use transform="matrix(0.010850694444444444,0,0,0.010850694444444444,43.25086805555555,0)" xlink:href="#af"/><use transform="matrix(0.010850694444444444,0,0,0.010850694444444444,56.57552083333333,0)" xlink:href="#ac"/></g><path d="M577 24c-279 0-473-224-473-580 0-354 195-576 474-576 218 0 287 134 324 193h14v-551h180V0H922v-173h-20C865-111 790 24 577 24zm27-161c203 0 314-172 314-421 0-247-108-413-314-413-212 0-317 181-317 413 0 235 108 421 317 421" id="ar"/><g id="o"><use transform="matrix(0.010850694444444444,0,0,0.010850694444444444,0,0)" xlink:href="#ao"/><use transform="matrix(0.010850694444444444,0,0,0.010850694444444444,16.9921875,0)" xlink:href="#am"/><use transform="matrix(0.010850694444444444,0,0,0.010850694444444444,24.348958333333332,0)" xlink:href="#am"/><use transform="matrix(0.010850694444444444,0,0,0.010850694444444444,31.922743055555554,0)" xlink:href="#ad"/><use transform="matrix(0.010850694444444444,0,0,0.010850694444444444,44.87847222222222,0)" xlink:href="#aa"/><use transform="matrix(0.010850694444444444,0,0,0.010850694444444444,52.87543402777778,0)" xlink:href="#ad"/><use transform="matrix(0.010850694444444444,0,0,0.010850694444444444,65.83116319444444,0)" xlink:href="#ar"/></g><path d="M613 24c-304 0-509-231-509-576 0-350 205-580 509-580 216 0 392 114 453 309l-173 49c-33-115-133-197-280-197-223 0-326 196-326 419 0 220 103 415 326 415 150 0 252-85 285-206l172 49C1010-95 832 24 613 24" id="as"/><g id="p"><use transform="matrix(0.010850694444444444,0,0,0.010850694444444444,0,0)" xlink:href="#al"/><use transform="matrix(0.010850694444444444,0,0,0.010850694444444444,14.192708333333332,0)" xlink:href="#aa"/><use transform="matrix(0.010850694444444444,0,0,0.010850694444444444,22.90581597222222,0)" xlink:href="#aq"/><use transform="matrix(0.010850694444444444,0,0,0.010850694444444444,28.287760416666664,0)" xlink:href="#as"/><use transform="matrix(0.010850694444444444,0,0,0.010850694444444444,40.983072916666664,0)" xlink:href="#ad"/><use transform="matrix(0.010850694444444444,0,0,0.010850694444444444,53.93880208333333,0)" xlink:href="#aj"/></g><g id="q"><use transform="matrix(0.010850694444444444,0,0,0.010850694444444444,0,0)" xlink:href="#X"/><use transform="matrix(0.010850694444444444,0,0,0.010850694444444444,14.2578125,0)" xlink:href="#ad"/><use transform="matrix(0.010850694444444444,0,0,0.010850694444444444,27.213541666666664,0)" xlink:href="#ad"/></g><path d="M180 0v-1490h510c348 0 508 194 508 460 0 198-88 351-276 417L1256 0h-220L726-579c-117 2-238 0-356 1V0H180zm190-747h312c235 0 327-108 327-283 0-177-92-293-329-293H370v576" id="at"/><g id="r"><use transform="matrix(0.010850694444444444,0,0,0.010850694444444444,0,0)" xlink:href="#at"/><use transform="matrix(0.010850694444444444,0,0,0.010850694444444444,13.975694444444445,0)" xlink:href="#ad"/><use transform="matrix(0.010850694444444444,0,0,0.010850694444444444,26.931423611111104,0)" xlink:href="#aj"/><use transform="matrix(0.010850694444444444,0,0,0.010850694444444444,38.66102430555555,0)" xlink:href="#ah"/><use transform="matrix(0.010850694444444444,0,0,0.010850694444444444,51.80121527777778,0)" xlink:href="#ag"/><use transform="matrix(0.010850694444444444,0,0,0.010850694444444444,57.50868055555555,0)" xlink:href="#Y"/><use transform="matrix(0.010850694444444444,0,0,0.010850694444444444,64.56163194444444,0)" xlink:href="#aj"/></g><g id="s"><use transform="matrix(0.010850694444444444,0,0,0.010850694444444444,0,0)" xlink:href="#at"/><use transform="matrix(0.010850694444444444,0,0,0.010850694444444444,13.975694444444445,0)" xlink:href="#ad"/><use transform="matrix(0.010850694444444444,0,0,0.010850694444444444,26.931423611111104,0)" xlink:href="#ah"/><use transform="matrix(0.010850694444444444,0,0,0.010850694444444444,40.07161458333333,0)" xlink:href="#ag"/><use transform="matrix(0.010850694444444444,0,0,0.010850694444444444,45.77907986111111,0)" xlink:href="#Y"/><use transform="matrix(0.010850694444444444,0,0,0.010850694444444444,52.83203125,0)" xlink:href="#aj"/></g><path d="M783 20c-382 0-661-292-661-764 0-473 279-766 661-766 302 0 548 182 601 489h-190c-42-204-217-313-411-313-268 0-476 208-476 590 0 381 209 588 476 588 195 0 369-110 411-313h190c-52 303-296 489-601 489" id="au"/><g id="t"><use transform="matrix(0.010850694444444444,0,0,0.010850694444444444,0,0)" xlink:href="#au"/><use transform="matrix(0.010850694444444444,0,0,0.010850694444444444,16.23263888888889,0)" xlink:href="#af"/><use transform="matrix(0.010850694444444444,0,0,0.010850694444444444,29.557291666666664,0)" xlink:href="#ai"/><use transform="matrix(0.010850694444444444,0,0,0.010850694444444444,49.0234375,0)" xlink:href="#ai"/><use transform="matrix(0.010850694444444444,0,0,0.010850694444444444,68.48958333333333,0)" xlink:href="#aq"/><use transform="matrix(0.010850694444444444,0,0,0.010850694444444444,73.87152777777777,0)" xlink:href="#Y"/><use transform="matrix(0.010850694444444444,0,0,0.010850694444444444,80.59895833333331,0)" xlink:href="#Y"/><use transform="matrix(0.010850694444444444,0,0,0.010850694444444444,87.6519097222222,0)" xlink:href="#ad"/><use transform="matrix(0.010850694444444444,0,0,0.010850694444444444,100.60763888888887,0)" xlink:href="#ar"/></g><path d="M52 0l541-1490h220L1361 0h-200l-149-416H398L254 0H52zm404-582h497c-103-290-145-390-251-756-108 377-145 460-246 756" id="av"/><g id="u"><use transform="matrix(0.010850694444444444,0,0,0.010850694444444444,0,0)" xlink:href="#av"/><use transform="matrix(0.010850694444444444,0,0,0.010850694444444444,15.33203125,0)" xlink:href="#ai"/><use transform="matrix(0.010850694444444444,0,0,0.010850694444444444,34.79817708333333,0)" xlink:href="#af"/><use transform="matrix(0.010850694444444444,0,0,0.010850694444444444,48.12282986111111,0)" xlink:href="#ah"/><use transform="matrix(0.010850694444444444,0,0,0.010850694444444444,61.26302083333333,0)" xlink:href="#ac"/><use transform="matrix(0.010850694444444444,0,0,0.010850694444444444,74.3923611111111,0)" xlink:href="#Y"/></g><g id="v"><use transform="matrix(0.010850694444444444,0,0,0.010850694444444444,0,0)" xlink:href="#X"/><use transform="matrix(0.010850694444444444,0,0,0.010850694444444444,14.2578125,0)" xlink:href="#Y"/><use transform="matrix(0.010850694444444444,0,0,0.010850694444444444,21.63628472222222,0)" xlink:href="#Z"/><use transform="matrix(0.010850694444444444,0,0,0.010850694444444444,34.11458333333333,0)" xlink:href="#aa"/><use transform="matrix(0.010850694444444444,0,0,0.010850694444444444,42.827690972222214,0)" xlink:href="#Y"/></g><path d="M481 0L54-1118h197c107 314 236 620 325 951 87-331 217-637 324-951h197L670 0H481" id="aw"/><g id="w"><use transform="matrix(0.010850694444444444,0,0,0.010850694444444444,0,0)" xlink:href="#af"/><use transform="matrix(0.010850694444444444,0,0,0.010850694444444444,12.890624999999996,0)" xlink:href="#aw"/><use transform="matrix(0.010850694444444444,0,0,0.010850694444444444,24.94574652777778,0)" xlink:href="#ad"/><use transform="matrix(0.010850694444444444,0,0,0.010850694444444444,37.90147569444444,0)" xlink:href="#aa"/></g><g id="x"><use transform="matrix(0.010850694444444444,0,0,0.010850694444444444,0,0)" xlink:href="#ab"/><use transform="matrix(0.010850694444444444,0,0,0.010850694444444444,13.35720486111111,0)" xlink:href="#ac"/><use transform="matrix(0.010850694444444444,0,0,0.010850694444444444,26.48654513888889,0)" xlink:href="#Y"/><use transform="matrix(0.010850694444444444,0,0,0.010850694444444444,33.53949652777777,0)" xlink:href="#ad"/><use transform="matrix(0.010850694444444444,0,0,0.010850694444444444,46.495225694444436,0)" xlink:href="#aa"/></g><g id="y"><use transform="matrix(0.010850694444444444,0,0,0.010850694444444444,0,0)" xlink:href="#af"/><use transform="matrix(0.010850694444444444,0,0,0.010850694444444444,13.324652777777777,0)" xlink:href="#am"/><use transform="matrix(0.010850694444444444,0,0,0.010850694444444444,20.68142361111111,0)" xlink:href="#am"/><use transform="matrix(0.010850694444444444,0,0,0.010850694444444444,28.255208333333332,0)" xlink:href="#ad"/><use transform="matrix(0.010850694444444444,0,0,0.010850694444444444,41.2109375,0)" xlink:href="#aa"/><use transform="matrix(0.010850694444444444,0,0,0.010850694444444444,49.20789930555556,0)" xlink:href="#ad"/><use transform="matrix(0.010850694444444444,0,0,0.010850694444444444,62.16362847222221,0)" xlink:href="#ar"/></g><g id="z"><use transform="matrix(0.010850694444444444,0,0,0.010850694444444444,0,0)" xlink:href="#ap"/><use transform="matrix(0.010850694444444444,0,0,0.010850694444444444,13.606770833333332,0)" xlink:href="#aa"/><use transform="matrix(0.010850694444444444,0,0,0.010850694444444444,22.31987847222222,0)" xlink:href="#aq"/><use transform="matrix(0.010850694444444444,0,0,0.010850694444444444,27.701822916666664,0)" xlink:href="#as"/><use transform="matrix(0.010850694444444444,0,0,0.010850694444444444,40.397135416666664,0)" xlink:href="#ad"/><use transform="matrix(0.010850694444444444,0,0,0.010850694444444444,53.35286458333333,0)" xlink:href="#aj"/></g><path fill="#333" d="M571 0L49-1490h339c138 427 271 775 384 1244 111-471 237-815 371-1244h337L970 0H571" id="ax"/><path fill="#333" d="M628 22C291 22 81-210 81-554c0-346 210-578 547-578 336 0 547 232 547 578 0 344-211 576-547 576zm0-236c160 0 242-146 242-341 0-197-82-341-242-341S387-753 387-555c0 195 81 341 241 341" id="ay"/><path fill="#333" d="M428-1490V0H128v-1490h300" id="az"/><path fill="#333" d="M513 14c-232 0-385-159-385-421v-711h300v659c0 139 76 222 202 222 127 0 217-86 217-234v-647h301V0H864l-4-232C797-74 683 14 513 14" id="aA"/><path fill="#333" d="M128 0v-1118h278l12 217c60-163 185-234 319-234 143 0 236 81 288 251 63-172 205-251 359-251 205 0 357 138 357 381V0h-301v-697c0-126-76-187-177-187-114 0-184 79-184 196V0H789v-705c0-109-72-179-174-179-106 0-187 74-187 208V0H128" id="aB"/><path fill="#333" d="M633 22C291 22 81-200 81-553c0-345 210-579 537-579 292 0 525 185 525 567v84H378c7 183 109 277 260 277 105 0 184-46 216-132l272 51C1071-99 893 22 633 22zM380-669h474c-15-146-94-237-233-237-143 0-229 99-241 237" id="aC"/><path fill="#333" d="M572 22C302 22 117-98 78-306l279-48c29 105 101 156 224 156 114 0 185-48 185-115 0-118-228-130-337-155-215-49-322-150-322-317 0-215 187-347 470-347 265 0 424 116 466 298l-266 47c-24-76-87-130-196-130-98 0-174 46-174 113 0 56 38 95 144 117l201 40c216 44 320 143 320 302 0 220-207 367-500 367" id="aD"/><g id="A"><use transform="matrix(0.008680555555555556,0,0,0.008680555555555556,0,0)" xlink:href="#ax"/><use transform="matrix(0.008680555555555556,0,0,0.008680555555555556,12.1875,0)" xlink:href="#ay"/><use transform="matrix(0.008680555555555556,0,0,0.008680555555555556,23.09027777777778,0)" xlink:href="#az"/><use transform="matrix(0.008680555555555556,0,0,0.008680555555555556,27.90798611111111,0)" xlink:href="#aA"/><use transform="matrix(0.008680555555555556,0,0,0.008680555555555556,38.97569444444444,0)" xlink:href="#aB"/><use transform="matrix(0.008680555555555556,0,0,0.008680555555555556,55.199652777777786,0)" xlink:href="#aC"/><use transform="matrix(0.008680555555555556,0,0,0.008680555555555556,65.78993055555557,0)" xlink:href="#aD"/></g><path fill="#333" d="M1224-471L205-19v-287l694-281v-14L205-883v-289l1019 454v247" id="aE"/><use transform="matrix(0.008680555555555556,0,0,0.008680555555555556,0,0)" xlink:href="#aE" id="B"/><path fill="#333" d="M690 20C314 20 94-261 94-744c0-482 221-766 596-766 376 0 597 284 597 766 0 483-219 764-597 764zm0-253c184 0 286-184 286-511 0-328-102-514-286-514-183 0-285 187-285 514s101 511 285 511" id="aF"/><use transform="matrix(0.008680555555555556,0,0,0.008680555555555556,0,0)" xlink:href="#aF" id="C"/><path fill="#333" d="M197-230v-252h997v252H197zm0-479v-251h997v251H197" id="aG"/><g id="D"><use transform="matrix(0.008680555555555556,0,0,0.008680555555555556,0,0)" xlink:href="#aG"/><use transform="matrix(0.008680555555555556,0,0,0.008680555555555556,12.065972222222223,0)" xlink:href="#aF"/></g></defs></g></svg>